# xmcd CD database file
#
# Track frame offsets:
#	150
#	21107
#	42905
#	64440
#	84932
#	109740
#
# Disc length: 1879 seconds
#
# Revision: 0
# Processed by: cddbd v1.4PL0 Copyright (c) Steve Scherf et al.
# Submitted via: CDex 1.50
#
DISCID=46075506
DTITLE=Ted Curson - Fire Down Below
DYEAR=1962
DGENRE=Jazz
TTITLE0=Fire Down Below
TTITLE1=The Very Young
TTITLE2=Baby Has Gone Bye Bye
TTITLE3=Show Me
TTITLE4=Falling In Love With Love
TTITLE5=Only Forever
EXTD=YEAR: 1962
EXTT0=
EXTT1=
EXTT2=
EXTT3=
EXTT4=
EXTT5=
PLAYORDER=
